<mxfile host="Electron" modified="2024-07-13T21:27:16.698Z" agent="Mozilla/5.0 (X11; Linux x86_64) AppleWebKit/537.36 (KHTML, like Gecko) draw.io/24.6.4 Chrome/124.0.6367.207 Electron/30.0.6 Safari/537.36" etag="tlb1YLmgyotqirP5IPgI" version="24.6.4" type="device">
  <diagram id="C5RBs43oDa-KdzZeNtuy" name="Page-1">
    <mxGraphModel dx="1364" dy="843" grid="1" gridSize="10" guides="1" tooltips="1" connect="1" arrows="1" fold="1" page="1" pageScale="1" pageWidth="827" pageHeight="1169" math="0" shadow="0">
      <root>
        <mxCell id="WIyWlLk6GJQsqaUBKTNV-0" />
        <mxCell id="WIyWlLk6GJQsqaUBKTNV-1" parent="WIyWlLk6GJQsqaUBKTNV-0" />
        <mxCell id="U51GWnYHo4TNuuC_m5qW-0" value="install fortity" style="strokeWidth=2;html=1;shape=mxgraph.flowchart.start_1;whiteSpace=wrap;fillColor=#d5e8d4;strokeColor=#82b366;fontStyle=1;fontSize=16;fontColor=#000099;" parent="WIyWlLk6GJQsqaUBKTNV-1" vertex="1">
          <mxGeometry x="30" y="200" width="140" height="60" as="geometry" />
        </mxCell>
        <mxCell id="U51GWnYHo4TNuuC_m5qW-8" value="&lt;b style=&quot;font-size: 13px;&quot;&gt;&lt;i style=&quot;font-size: 13px;&quot;&gt;config/fortity.php&lt;/i&gt;&lt;/b&gt;" style="text;html=1;align=center;verticalAlign=middle;resizable=0;points=[];autosize=1;strokeColor=none;fillColor=none;fontSize=13;fontColor=#660000;" parent="WIyWlLk6GJQsqaUBKTNV-1" vertex="1">
          <mxGeometry x="340" width="130" height="30" as="geometry" />
        </mxCell>
        <mxCell id="6gROGEQnWiNRbmc16GZL-19" value="List" style="swimlane;fontStyle=0;childLayout=stackLayout;horizontal=1;startSize=26;horizontalStack=0;resizeParent=1;resizeParentMax=0;resizeLast=0;collapsible=1;marginBottom=0;align=center;fontSize=14;" parent="WIyWlLk6GJQsqaUBKTNV-1" vertex="1">
          <mxGeometry x="170" y="540" width="160" height="116" as="geometry">
            <mxRectangle x="170" y="540" width="60" height="30" as="alternateBounds" />
          </mxGeometry>
        </mxCell>
        <mxCell id="6gROGEQnWiNRbmc16GZL-23" value="asdf" style="text;strokeColor=none;fillColor=none;spacingLeft=4;spacingRight=4;overflow=hidden;rotatable=0;points=[[0,0.5],[1,0.5]];portConstraint=eastwest;fontSize=12;whiteSpace=wrap;html=1;" parent="6gROGEQnWiNRbmc16GZL-19" vertex="1">
          <mxGeometry y="26" width="160" height="30" as="geometry" />
        </mxCell>
        <mxCell id="6gROGEQnWiNRbmc16GZL-21" value="Item 2" style="text;strokeColor=none;fillColor=none;spacingLeft=4;spacingRight=4;overflow=hidden;rotatable=0;points=[[0,0.5],[1,0.5]];portConstraint=eastwest;fontSize=12;whiteSpace=wrap;html=1;" parent="6gROGEQnWiNRbmc16GZL-19" vertex="1">
          <mxGeometry y="56" width="160" height="30" as="geometry" />
        </mxCell>
        <mxCell id="6gROGEQnWiNRbmc16GZL-22" value="Item 3" style="text;strokeColor=none;fillColor=none;spacingLeft=4;spacingRight=4;overflow=hidden;rotatable=0;points=[[0,0.5],[1,0.5]];portConstraint=eastwest;fontSize=12;whiteSpace=wrap;html=1;" parent="6gROGEQnWiNRbmc16GZL-19" vertex="1">
          <mxGeometry y="86" width="160" height="30" as="geometry" />
        </mxCell>
        <mxCell id="uoXuH0vKqlSMkDFl6i5y-5" value="" style="swimlane;startSize=0;" parent="WIyWlLk6GJQsqaUBKTNV-1" vertex="1">
          <mxGeometry x="380" y="180" width="490" height="540" as="geometry">
            <mxRectangle x="380" y="180" width="50" height="40" as="alternateBounds" />
          </mxGeometry>
        </mxCell>
        <object label="&lt;b&gt;&lt;font color=&quot;#190033&quot; style=&quot;font-size: 14px;&quot;&gt;Parámetros de configuración&amp;nbsp;&lt;/font&gt;&lt;/b&gt;" a="" c="" id="uoXuH0vKqlSMkDFl6i5y-6">
          <mxCell style="swimlane;fontStyle=0;childLayout=stackLayout;horizontal=1;startSize=26;fillColor=none;horizontalStack=0;resizeParent=1;resizeParentMax=0;resizeLast=0;collapsible=1;marginBottom=0;html=1;container=0;direction=east;movable=1;resizable=1;rotatable=1;deletable=1;editable=1;locked=0;connectable=1;" parent="uoXuH0vKqlSMkDFl6i5y-5" vertex="1">
            <mxGeometry x="40" y="40" width="390" height="356" as="geometry">
              <mxRectangle x="337" y="52" width="240" height="30" as="alternateBounds" />
            </mxGeometry>
          </mxCell>
        </object>
        <mxCell id="uoXuH0vKqlSMkDFl6i5y-7" value="&lt;span style=&quot;color: rgb(6, 125, 23); font-family: &amp;quot;JetBrains Mono&amp;quot;, monospace; background-color: rgb(255, 255, 255);&quot;&gt;guard&lt;/span&gt;:&amp;nbsp;&lt;i&gt;Cómo se autentican los usuarios&amp;nbsp;&lt;/i&gt;" style="text;strokeColor=none;fillColor=none;spacingLeft=4;spacingRight=4;overflow=hidden;rotatable=0;points=[[0,0.5],[1,0.5]];portConstraint=eastwest;fontSize=12;whiteSpace=wrap;html=1;" parent="uoXuH0vKqlSMkDFl6i5y-6" vertex="1">
          <mxGeometry y="26" width="390" height="30" as="geometry" />
        </mxCell>
        <mxCell id="uoXuH0vKqlSMkDFl6i5y-8" value="&lt;span style=&quot;color: rgb(6, 125, 23); font-family: &amp;quot;JetBrains Mono&amp;quot;, monospace; background-color: rgb(255, 255, 255);&quot;&gt;passwords&lt;/span&gt;:&amp;nbsp;&lt;i&gt;Cómo se recuperan contraseñas&lt;/i&gt;" style="text;strokeColor=none;fillColor=none;spacingLeft=4;spacingRight=4;overflow=hidden;rotatable=0;points=[[0,0.5],[1,0.5]];portConstraint=eastwest;fontSize=12;whiteSpace=wrap;html=1;" parent="uoXuH0vKqlSMkDFl6i5y-6" vertex="1">
          <mxGeometry y="56" width="390" height="30" as="geometry" />
        </mxCell>
        <mxCell id="uoXuH0vKqlSMkDFl6i5y-9" value="&lt;span style=&quot;forced-color-adjust: none; font-size: 12px; font-style: normal; font-variant-ligatures: normal; font-variant-caps: normal; font-weight: 400; letter-spacing: normal; orphans: 2; text-align: left; text-indent: 0px; text-transform: none; widows: 2; word-spacing: 0px; -webkit-text-stroke-width: 0px; white-space: normal; text-decoration-thickness: initial; text-decoration-style: initial; text-decoration-color: initial; color: rgb(6, 125, 23); font-family: &amp;quot;JetBrains Mono&amp;quot;, monospace; background-color: rgb(255, 255, 255);&quot;&gt;username&lt;/span&gt;&lt;b style=&quot;forced-color-adjust: none; color: rgb(0, 0, 0); font-family: Helvetica; font-size: 12px; font-style: normal; font-variant-ligatures: normal; font-variant-caps: normal; letter-spacing: normal; orphans: 2; text-align: left; text-indent: 0px; text-transform: none; widows: 2; word-spacing: 0px; -webkit-text-stroke-width: 0px; white-space: normal; background-color: rgb(251, 251, 251); text-decoration-thickness: initial; text-decoration-style: initial; text-decoration-color: initial;&quot;&gt;&lt;font style=&quot;forced-color-adjust: none; font-size: 13px;&quot; color=&quot;#003300&quot;&gt;&amp;nbsp;&lt;/font&gt;&lt;/b&gt;&lt;span style=&quot;color: rgb(0, 0, 0); font-family: Helvetica; font-size: 12px; font-style: normal; font-variant-ligatures: normal; font-variant-caps: normal; font-weight: 400; letter-spacing: normal; orphans: 2; text-align: left; text-indent: 0px; text-transform: none; widows: 2; word-spacing: 0px; -webkit-text-stroke-width: 0px; white-space: normal; background-color: rgb(251, 251, 251); text-decoration-thickness: initial; text-decoration-style: initial; text-decoration-color: initial; display: inline !important; float: none;&quot;&gt;:&amp;nbsp;&lt;/span&gt;&lt;i style=&quot;forced-color-adjust: none; color: rgb(0, 0, 0); font-family: Helvetica; font-size: 12px; font-variant-ligatures: normal; font-variant-caps: normal; font-weight: 400; letter-spacing: normal; orphans: 2; text-align: left; text-indent: 0px; text-transform: none; widows: 2; word-spacing: 0px; -webkit-text-stroke-width: 0px; white-space: normal; background-color: rgb(251, 251, 251); text-decoration-thickness: initial; text-decoration-style: initial; text-decoration-color: initial;&quot;&gt;campo en la&amp;nbsp; autentiación&lt;/i&gt;" style="text;strokeColor=none;fillColor=none;spacingLeft=4;spacingRight=4;overflow=hidden;rotatable=0;points=[[0,0.5],[1,0.5]];portConstraint=eastwest;fontSize=12;whiteSpace=wrap;html=1;" parent="uoXuH0vKqlSMkDFl6i5y-6" vertex="1">
          <mxGeometry y="86" width="390" height="30" as="geometry" />
        </mxCell>
        <mxCell id="uoXuH0vKqlSMkDFl6i5y-10" value="&lt;span style=&quot;forced-color-adjust: none; font-size: 12px; font-style: normal; font-variant-ligatures: normal; font-variant-caps: normal; font-weight: 400; letter-spacing: normal; orphans: 2; text-align: left; text-indent: 0px; text-transform: none; widows: 2; word-spacing: 0px; -webkit-text-stroke-width: 0px; white-space: normal; text-decoration-thickness: initial; text-decoration-style: initial; text-decoration-color: initial; color: rgb(6, 125, 23); font-family: &amp;quot;JetBrains Mono&amp;quot;, monospace; background-color: rgb(255, 255, 255);&quot;&gt;email&lt;/span&gt;&lt;span style=&quot;color: rgb(0, 0, 0); font-family: Helvetica; font-size: 12px; font-style: normal; font-variant-ligatures: normal; font-variant-caps: normal; font-weight: 400; letter-spacing: normal; orphans: 2; text-align: left; text-indent: 0px; text-transform: none; widows: 2; word-spacing: 0px; -webkit-text-stroke-width: 0px; white-space: normal; background-color: rgb(251, 251, 251); text-decoration-thickness: initial; text-decoration-style: initial; text-decoration-color: initial; display: inline !important; float: none;&quot;&gt;:&amp;nbsp;&lt;/span&gt;&lt;i style=&quot;forced-color-adjust: none; color: rgb(0, 0, 0); font-family: Helvetica; font-size: 12px; font-variant-ligatures: normal; font-variant-caps: normal; font-weight: 400; letter-spacing: normal; orphans: 2; text-align: left; text-indent: 0px; text-transform: none; widows: 2; word-spacing: 0px; -webkit-text-stroke-width: 0px; white-space: normal; background-color: rgb(251, 251, 251); text-decoration-thickness: initial; text-decoration-style: initial; text-decoration-color: initial;&quot;&gt;esperado para reset password&lt;/i&gt;" style="text;strokeColor=none;fillColor=none;spacingLeft=4;spacingRight=4;overflow=hidden;rotatable=0;points=[[0,0.5],[1,0.5]];portConstraint=eastwest;fontSize=12;whiteSpace=wrap;html=1;" parent="uoXuH0vKqlSMkDFl6i5y-6" vertex="1">
          <mxGeometry y="116" width="390" height="30" as="geometry" />
        </mxCell>
        <mxCell id="uoXuH0vKqlSMkDFl6i5y-11" value="&lt;span style=&quot;forced-color-adjust: none; font-size: 12px; font-style: normal; font-variant-ligatures: normal; font-variant-caps: normal; font-weight: 400; letter-spacing: normal; orphans: 2; text-align: left; text-indent: 0px; text-transform: none; widows: 2; word-spacing: 0px; -webkit-text-stroke-width: 0px; white-space: normal; text-decoration-thickness: initial; text-decoration-style: initial; text-decoration-color: initial; color: rgb(6, 125, 23); font-family: &amp;quot;JetBrains Mono&amp;quot;, monospace; background-color: rgb(255, 255, 255);&quot;&gt;lowercase_usernames&lt;/span&gt;&lt;span style=&quot;forced-color-adjust: none; font-style: normal; font-variant-ligatures: normal; font-variant-caps: normal; font-weight: 400; letter-spacing: normal; orphans: 2; text-align: left; text-indent: 0px; text-transform: none; widows: 2; word-spacing: 0px; -webkit-text-stroke-width: 0px; white-space: nowrap; background-color: rgb(251, 251, 251); text-decoration-thickness: initial; text-decoration-style: initial; text-decoration-color: initial; color: rgba(0, 0, 0, 0); font-family: monospace; font-size: 0px;&quot;&gt;%3CmxGraphModel%3E%3Croot%3E%3CmxCell%20id%3D%220%22%2F%3E%3CmxCell%20id%3D%221%22%20parent%3D%220%22%2F%3E%3CmxCell%20id%3D%222%22%20value%3D%22%26lt%3Bb%26gt%3B%26lt%3Bfont%20style%3D%26quot%3Bfont-size%3A%2013px%3B%26quot%3B%20color%3D%26quot%3B%23003300%26quot%3B%26gt%3Bpassword%26lt%3B%2Ffont%26gt%3B%26lt%3B%2Fb%26gt%3B%3A%26amp%3Bnbsp%3B%26lt%3Bi%26gt%3BC%C3%B3mo%20se%20recuperan%20contrase%C3%B1as%26lt%3B%2Fi%26gt%3B%22%20style%3D%22text%3BstrokeColor%3Dnone%3BfillColor%3Dnone%3Balign%3Dleft%3BverticalAlign%3Dtop%3BspacingLeft%3D4%3BspacingRight%3D4%3Boverflow%3Dhidden%3Brotatable%3D0%3Bpoints%3D%5B%5B0%2C0.5%5D%2C%5B1%2C0.5%5D%5D%3BportConstraint%3Deastwest%3BwhiteSpace%3Dwrap%3Bhtml%3D1%3Bcontainer%3D0%3B%22%20vertex%3D%221%22%20parent%3D%221%22%3E%3CmxGeometry%20x%3D%22280%22%20y%3D%22118.9%22%20width%3D%22300%22%20height%3D%2218.2%22%20as%3D%22geometry%22%2F%3E%3C%2FmxCell%3E%3C%2Froot%3E%3C%2FmxGraphModel%3E" style="text;strokeColor=none;fillColor=none;spacingLeft=4;spacingRight=4;overflow=hidden;rotatable=0;points=[[0,0.5],[1,0.5]];portConstraint=eastwest;fontSize=12;whiteSpace=wrap;html=1;" parent="uoXuH0vKqlSMkDFl6i5y-6" vertex="1">
          <mxGeometry y="146" width="390" height="30" as="geometry" />
        </mxCell>
        <mxCell id="uoXuH0vKqlSMkDFl6i5y-12" style="text;strokeColor=none;fillColor=none;spacingLeft=4;spacingRight=4;overflow=hidden;rotatable=0;points=[[0,0.5],[1,0.5]];portConstraint=eastwest;fontSize=12;whiteSpace=wrap;html=1;" parent="uoXuH0vKqlSMkDFl6i5y-6" vertex="1">
          <mxGeometry y="176" width="390" height="30" as="geometry" />
        </mxCell>
        <mxCell id="uoXuH0vKqlSMkDFl6i5y-13" value="&lt;span style=&quot;forced-color-adjust: none; font-size: 12px; font-style: normal; font-variant-ligatures: normal; font-variant-caps: normal; font-weight: 400; letter-spacing: normal; orphans: 2; text-align: left; text-indent: 0px; text-transform: none; widows: 2; word-spacing: 0px; -webkit-text-stroke-width: 0px; white-space: normal; text-decoration-thickness: initial; text-decoration-style: initial; text-decoration-color: initial; color: rgb(6, 125, 23); font-family: &amp;quot;JetBrains Mono&amp;quot;, monospace; background-color: rgb(255, 255, 255);&quot;&gt;lowercase_usernames&lt;/span&gt;&lt;span style=&quot;forced-color-adjust: none; font-style: normal; font-variant-ligatures: normal; font-variant-caps: normal; font-weight: 400; letter-spacing: normal; orphans: 2; text-align: left; text-indent: 0px; text-transform: none; widows: 2; word-spacing: 0px; -webkit-text-stroke-width: 0px; white-space: nowrap; background-color: rgb(251, 251, 251); text-decoration-thickness: initial; text-decoration-style: initial; text-decoration-color: initial; color: rgba(0, 0, 0, 0); font-family: monospace; font-size: 0px;&quot;&gt;%3CmxGraphModel%3E%3Croot%3E%3CmxCell%20id%3D%220%22%2F%3E%3CmxCell%20id%3D%221%22%20parent%3D%220%22%2F%3E%3CmxCell%20id%3D%222%22%20value%3D%22%26lt%3Bb%26gt%3B%26lt%3Bfont%20style%3D%26quot%3Bfont-size%3A%2013px%3B%26quot%3B%20color%3D%26quot%3B%23003300%26quot%3B%26gt%3Bpassword%26lt%3B%2Ffont%26gt%3B%26lt%3B%2Fb%26gt%3B%3A%26amp%3Bnbsp%3B%26lt%3Bi%26gt%3BC%C3%B3mo%20se%20recuperan%20contrase%C3%B1as%26lt%3B%2Fi%26gt%3B%22%20style%3D%22text%3BstrokeColor%3Dnone%3BfillColor%3Dnone%3Balign%3Dleft%3BverticalAlign%3Dtop%3BspacingLeft%3D4%3BspacingRight%3D4%3Boverflow%3Dhidden%3Brotatable%3D0%3Bpoints%3D%5B%5B0%2C0.5%5D%2C%5B1%2C0.5%5D%5D%3BportConstraint%3Deastwest%3BwhiteSpace%3Dwrap%3Bhtml%3D1%3Bcontainer%3D0%3B%22%20vertex%3D%221%22%20parent%3D%221%22%3E%3CmxGeometry%20x%3D%22280%22%20y%3D%22118.9%22%20width%3D%22300%22%20height%3D%2218.2%22%20as%3D%22geometry%22%2F%3E%3C%2FmxCell%3E%3C%2Froot%3E%3C%2FmxGraphModel%3E" style="text;strokeColor=none;fillColor=none;spacingLeft=4;spacingRight=4;overflow=hidden;rotatable=0;points=[[0,0.5],[1,0.5]];portConstraint=eastwest;fontSize=12;whiteSpace=wrap;html=1;" parent="uoXuH0vKqlSMkDFl6i5y-6" vertex="1">
          <mxGeometry y="206" width="390" height="30" as="geometry" />
        </mxCell>
        <mxCell id="uoXuH0vKqlSMkDFl6i5y-14" value="&lt;span style=&quot;forced-color-adjust: none; font-size: 12px; font-style: normal; font-variant-ligatures: normal; font-variant-caps: normal; font-weight: 400; letter-spacing: normal; orphans: 2; text-align: left; text-indent: 0px; text-transform: none; widows: 2; word-spacing: 0px; -webkit-text-stroke-width: 0px; white-space: normal; text-decoration-thickness: initial; text-decoration-style: initial; text-decoration-color: initial; color: rgb(6, 125, 23); font-family: &amp;quot;JetBrains Mono&amp;quot;, monospace; background-color: rgb(255, 255, 255);&quot;&gt;lowercase_usernames&lt;/span&gt;&lt;span style=&quot;forced-color-adjust: none; font-style: normal; font-variant-ligatures: normal; font-variant-caps: normal; font-weight: 400; letter-spacing: normal; orphans: 2; text-align: left; text-indent: 0px; text-transform: none; widows: 2; word-spacing: 0px; -webkit-text-stroke-width: 0px; white-space: nowrap; background-color: rgb(251, 251, 251); text-decoration-thickness: initial; text-decoration-style: initial; text-decoration-color: initial; color: rgba(0, 0, 0, 0); font-family: monospace; font-size: 0px;&quot;&gt;%3CmxGraphModel%3E%3Croot%3E%3CmxCell%20id%3D%220%22%2F%3E%3CmxCell%20id%3D%221%22%20parent%3D%220%22%2F%3E%3CmxCell%20id%3D%222%22%20value%3D%22%26lt%3Bb%26gt%3B%26lt%3Bfont%20style%3D%26quot%3Bfont-size%3A%2013px%3B%26quot%3B%20color%3D%26quot%3B%23003300%26quot%3B%26gt%3Bpassword%26lt%3B%2Ffont%26gt%3B%26lt%3B%2Fb%26gt%3B%3A%26amp%3Bnbsp%3B%26lt%3Bi%26gt%3BC%C3%B3mo%20se%20recuperan%20contrase%C3%B1as%26lt%3B%2Fi%26gt%3B%22%20style%3D%22text%3BstrokeColor%3Dnone%3BfillColor%3Dnone%3Balign%3Dleft%3BverticalAlign%3Dtop%3BspacingLeft%3D4%3BspacingRight%3D4%3Boverflow%3Dhidden%3Brotatable%3D0%3Bpoints%3D%5B%5B0%2C0.5%5D%2C%5B1%2C0.5%5D%5D%3BportConstraint%3Deastwest%3BwhiteSpace%3Dwrap%3Bhtml%3D1%3Bcontainer%3D0%3B%22%20vertex%3D%221%22%20parent%3D%221%22%3E%3CmxGeometry%20x%3D%22280%22%20y%3D%22118.9%22%20width%3D%22300%22%20height%3D%2218.2%22%20as%3D%22geometry%22%2F%3E%3C%2FmxCell%3E%3C%2Froot%3E%3C%2FmxGraphModel%3E" style="text;strokeColor=none;fillColor=none;spacingLeft=4;spacingRight=4;overflow=hidden;rotatable=0;points=[[0,0.5],[1,0.5]];portConstraint=eastwest;fontSize=12;whiteSpace=wrap;html=1;" parent="uoXuH0vKqlSMkDFl6i5y-6" vertex="1">
          <mxGeometry y="236" width="390" height="30" as="geometry" />
        </mxCell>
        <mxCell id="uoXuH0vKqlSMkDFl6i5y-15" value="&lt;span style=&quot;forced-color-adjust: none; font-size: 12px; font-style: normal; font-variant-ligatures: normal; font-variant-caps: normal; font-weight: 400; letter-spacing: normal; orphans: 2; text-align: left; text-indent: 0px; text-transform: none; widows: 2; word-spacing: 0px; -webkit-text-stroke-width: 0px; white-space: normal; text-decoration-thickness: initial; text-decoration-style: initial; text-decoration-color: initial; color: rgb(6, 125, 23); font-family: &amp;quot;JetBrains Mono&amp;quot;, monospace; background-color: rgb(255, 255, 255);&quot;&gt;lowercase_usernames&lt;/span&gt;&lt;span style=&quot;forced-color-adjust: none; font-style: normal; font-variant-ligatures: normal; font-variant-caps: normal; font-weight: 400; letter-spacing: normal; orphans: 2; text-align: left; text-indent: 0px; text-transform: none; widows: 2; word-spacing: 0px; -webkit-text-stroke-width: 0px; white-space: nowrap; background-color: rgb(251, 251, 251); text-decoration-thickness: initial; text-decoration-style: initial; text-decoration-color: initial; color: rgba(0, 0, 0, 0); font-family: monospace; font-size: 0px;&quot;&gt;%3CmxGraphModel%3E%3Croot%3E%3CmxCell%20id%3D%220%22%2F%3E%3CmxCell%20id%3D%221%22%20parent%3D%220%22%2F%3E%3CmxCell%20id%3D%222%22%20value%3D%22%26lt%3Bb%26gt%3B%26lt%3Bfont%20style%3D%26quot%3Bfont-size%3A%2013px%3B%26quot%3B%20color%3D%26quot%3B%23003300%26quot%3B%26gt%3Bpassword%26lt%3B%2Ffont%26gt%3B%26lt%3B%2Fb%26gt%3B%3A%26amp%3Bnbsp%3B%26lt%3Bi%26gt%3BC%C3%B3mo%20se%20recuperan%20contrase%C3%B1as%26lt%3B%2Fi%26gt%3B%22%20style%3D%22text%3BstrokeColor%3Dnone%3BfillColor%3Dnone%3Balign%3Dleft%3BverticalAlign%3Dtop%3BspacingLeft%3D4%3BspacingRight%3D4%3Boverflow%3Dhidden%3Brotatable%3D0%3Bpoints%3D%5B%5B0%2C0.5%5D%2C%5B1%2C0.5%5D%5D%3BportConstraint%3Deastwest%3BwhiteSpace%3Dwrap%3Bhtml%3D1%3Bcontainer%3D0%3B%22%20vertex%3D%221%22%20parent%3D%221%22%3E%3CmxGeometry%20x%3D%22280%22%20y%3D%22118.9%22%20width%3D%22300%22%20height%3D%2218.2%22%20as%3D%22geometry%22%2F%3E%3C%2FmxCell%3E%3C%2Froot%3E%3C%2FmxGraphModel%3E" style="text;strokeColor=none;fillColor=none;spacingLeft=4;spacingRight=4;overflow=hidden;rotatable=0;points=[[0,0.5],[1,0.5]];portConstraint=eastwest;fontSize=12;whiteSpace=wrap;html=1;" parent="uoXuH0vKqlSMkDFl6i5y-6" vertex="1">
          <mxGeometry y="266" width="390" height="30" as="geometry" />
        </mxCell>
        <mxCell id="uoXuH0vKqlSMkDFl6i5y-16" value="&lt;span style=&quot;forced-color-adjust: none; font-size: 12px; font-style: normal; font-variant-ligatures: normal; font-variant-caps: normal; font-weight: 400; letter-spacing: normal; orphans: 2; text-align: left; text-indent: 0px; text-transform: none; widows: 2; word-spacing: 0px; -webkit-text-stroke-width: 0px; white-space: normal; text-decoration-thickness: initial; text-decoration-style: initial; text-decoration-color: initial; color: rgb(6, 125, 23); font-family: &amp;quot;JetBrains Mono&amp;quot;, monospace; background-color: rgb(255, 255, 255);&quot;&gt;lowercase_usernames&lt;/span&gt;&lt;span style=&quot;forced-color-adjust: none; font-style: normal; font-variant-ligatures: normal; font-variant-caps: normal; font-weight: 400; letter-spacing: normal; orphans: 2; text-align: left; text-indent: 0px; text-transform: none; widows: 2; word-spacing: 0px; -webkit-text-stroke-width: 0px; white-space: nowrap; background-color: rgb(251, 251, 251); text-decoration-thickness: initial; text-decoration-style: initial; text-decoration-color: initial; color: rgba(0, 0, 0, 0); font-family: monospace; font-size: 0px;&quot;&gt;%3CmxGraphModel%3E%3Croot%3E%3CmxCell%20id%3D%220%22%2F%3E%3CmxCell%20id%3D%221%22%20parent%3D%220%22%2F%3E%3CmxCell%20id%3D%222%22%20value%3D%22%26lt%3Bb%26gt%3B%26lt%3Bfont%20style%3D%26quot%3Bfont-size%3A%2013px%3B%26quot%3B%20color%3D%26quot%3B%23003300%26quot%3B%26gt%3Bpassword%26lt%3B%2Ffont%26gt%3B%26lt%3B%2Fb%26gt%3B%3A%26amp%3Bnbsp%3B%26lt%3Bi%26gt%3BC%C3%B3mo%20se%20recuperan%20contrase%C3%B1as%26lt%3B%2Fi%26gt%3B%22%20style%3D%22text%3BstrokeColor%3Dnone%3BfillColor%3Dnone%3Balign%3Dleft%3BverticalAlign%3Dtop%3BspacingLeft%3D4%3BspacingRight%3D4%3Boverflow%3Dhidden%3Brotatable%3D0%3Bpoints%3D%5B%5B0%2C0.5%5D%2C%5B1%2C0.5%5D%5D%3BportConstraint%3Deastwest%3BwhiteSpace%3Dwrap%3Bhtml%3D1%3Bcontainer%3D0%3B%22%20vertex%3D%221%22%20parent%3D%221%22%3E%3CmxGeometry%20x%3D%22280%22%20y%3D%22118.9%22%20width%3D%22300%22%20height%3D%2218.2%22%20as%3D%22geometry%22%2F%3E%3C%2FmxCell%3E%3C%2Froot%3E%3C%2FmxGraphModel%3E" style="text;strokeColor=none;fillColor=none;spacingLeft=4;spacingRight=4;overflow=hidden;rotatable=0;points=[[0,0.5],[1,0.5]];portConstraint=eastwest;fontSize=12;whiteSpace=wrap;html=1;" parent="uoXuH0vKqlSMkDFl6i5y-6" vertex="1">
          <mxGeometry y="296" width="390" height="30" as="geometry" />
        </mxCell>
        <mxCell id="uoXuH0vKqlSMkDFl6i5y-17" value="&lt;span style=&quot;forced-color-adjust: none; font-size: 12px; font-style: normal; font-variant-ligatures: normal; font-variant-caps: normal; font-weight: 400; letter-spacing: normal; orphans: 2; text-align: left; text-indent: 0px; text-transform: none; widows: 2; word-spacing: 0px; -webkit-text-stroke-width: 0px; white-space: normal; text-decoration-thickness: initial; text-decoration-style: initial; text-decoration-color: initial; color: rgb(6, 125, 23); font-family: &amp;quot;JetBrains Mono&amp;quot;, monospace; background-color: rgb(255, 255, 255);&quot;&gt;lowercase_usernames&lt;/span&gt;&lt;span style=&quot;forced-color-adjust: none; font-style: normal; font-variant-ligatures: normal; font-variant-caps: normal; font-weight: 400; letter-spacing: normal; orphans: 2; text-align: left; text-indent: 0px; text-transform: none; widows: 2; word-spacing: 0px; -webkit-text-stroke-width: 0px; white-space: nowrap; background-color: rgb(251, 251, 251); text-decoration-thickness: initial; text-decoration-style: initial; text-decoration-color: initial; color: rgba(0, 0, 0, 0); font-family: monospace; font-size: 0px;&quot;&gt;%3CmxGraphModel%3E%3Croot%3E%3CmxCell%20id%3D%220%22%2F%3E%3CmxCell%20id%3D%221%22%20parent%3D%220%22%2F%3E%3CmxCell%20id%3D%222%22%20value%3D%22%26lt%3Bb%26gt%3B%26lt%3Bfont%20style%3D%26quot%3Bfont-size%3A%2013px%3B%26quot%3B%20color%3D%26quot%3B%23003300%26quot%3B%26gt%3Bpassword%26lt%3B%2Ffont%26gt%3B%26lt%3B%2Fb%26gt%3B%3A%26amp%3Bnbsp%3B%26lt%3Bi%26gt%3BC%C3%B3mo%20se%20recuperan%20contrase%C3%B1as%26lt%3B%2Fi%26gt%3B%22%20style%3D%22text%3BstrokeColor%3Dnone%3BfillColor%3Dnone%3Balign%3Dleft%3BverticalAlign%3Dtop%3BspacingLeft%3D4%3BspacingRight%3D4%3Boverflow%3Dhidden%3Brotatable%3D0%3Bpoints%3D%5B%5B0%2C0.5%5D%2C%5B1%2C0.5%5D%5D%3BportConstraint%3Deastwest%3BwhiteSpace%3Dwrap%3Bhtml%3D1%3Bcontainer%3D0%3B%22%20vertex%3D%221%22%20parent%3D%221%22%3E%3CmxGeometry%20x%3D%22280%22%20y%3D%22118.9%22%20width%3D%22300%22%20height%3D%2218.2%22%20as%3D%22geometry%22%2F%3E%3C%2FmxCell%3E%3C%2Froot%3E%3C%2FmxGraphModel%3E" style="text;strokeColor=none;fillColor=none;spacingLeft=4;spacingRight=4;overflow=hidden;rotatable=0;points=[[0,0.5],[1,0.5]];portConstraint=eastwest;fontSize=12;whiteSpace=wrap;html=1;" parent="uoXuH0vKqlSMkDFl6i5y-6" vertex="1">
          <mxGeometry y="326" width="390" height="30" as="geometry" />
        </mxCell>
        <mxCell id="e5cI-msZ8dwVWMI434KQ-0" value="" style="endArrow=none;dashed=1;html=1;dashPattern=1 3;strokeWidth=2;rounded=0;" parent="WIyWlLk6GJQsqaUBKTNV-1" edge="1">
          <mxGeometry width="50" height="50" relative="1" as="geometry">
            <mxPoint x="670" y="460" as="sourcePoint" />
            <mxPoint x="720" y="410" as="targetPoint" />
          </mxGeometry>
        </mxCell>
        <mxCell id="e5cI-msZ8dwVWMI434KQ-6" style="edgeStyle=orthogonalEdgeStyle;rounded=0;orthogonalLoop=1;jettySize=auto;html=1;exitX=1;exitY=0.5;exitDx=0;exitDy=0;" parent="WIyWlLk6GJQsqaUBKTNV-1" source="e5cI-msZ8dwVWMI434KQ-1" target="e5cI-msZ8dwVWMI434KQ-2" edge="1">
          <mxGeometry relative="1" as="geometry" />
        </mxCell>
        <mxCell id="e5cI-msZ8dwVWMI434KQ-10" style="edgeStyle=orthogonalEdgeStyle;rounded=0;orthogonalLoop=1;jettySize=auto;html=1;exitX=0.5;exitY=1;exitDx=0;exitDy=0;entryX=0;entryY=0.5;entryDx=0;entryDy=0;" parent="WIyWlLk6GJQsqaUBKTNV-1" source="e5cI-msZ8dwVWMI434KQ-1" target="e5cI-msZ8dwVWMI434KQ-3" edge="1">
          <mxGeometry relative="1" as="geometry" />
        </mxCell>
        <mxCell id="e5cI-msZ8dwVWMI434KQ-1" value="" style="ellipse;html=1;shape=endState;fillColor=#000000;strokeColor=#ff0000;" parent="WIyWlLk6GJQsqaUBKTNV-1" vertex="1">
          <mxGeometry x="510" y="870" width="30" height="30" as="geometry" />
        </mxCell>
        <mxCell id="8H80iAvhQ8a1KgrO3TqX-2" style="edgeStyle=orthogonalEdgeStyle;rounded=0;orthogonalLoop=1;jettySize=auto;html=1;entryX=0;entryY=0.5;entryDx=0;entryDy=0;" edge="1" parent="WIyWlLk6GJQsqaUBKTNV-1" source="e5cI-msZ8dwVWMI434KQ-2" target="8H80iAvhQ8a1KgrO3TqX-0">
          <mxGeometry relative="1" as="geometry" />
        </mxCell>
        <mxCell id="8H80iAvhQ8a1KgrO3TqX-3" style="edgeStyle=orthogonalEdgeStyle;rounded=0;orthogonalLoop=1;jettySize=auto;html=1;" edge="1" parent="WIyWlLk6GJQsqaUBKTNV-1" source="e5cI-msZ8dwVWMI434KQ-2" target="8H80iAvhQ8a1KgrO3TqX-1">
          <mxGeometry relative="1" as="geometry" />
        </mxCell>
        <mxCell id="e5cI-msZ8dwVWMI434KQ-2" value="Instalar paquete&amp;nbsp; fortify" style="ellipse;whiteSpace=wrap;html=1;" parent="WIyWlLk6GJQsqaUBKTNV-1" vertex="1">
          <mxGeometry x="640" y="850" width="140" height="70" as="geometry" />
        </mxCell>
        <mxCell id="8H80iAvhQ8a1KgrO3TqX-14" style="edgeStyle=orthogonalEdgeStyle;rounded=0;orthogonalLoop=1;jettySize=auto;html=1;entryX=1;entryY=0.5;entryDx=0;entryDy=0;" edge="1" parent="WIyWlLk6GJQsqaUBKTNV-1" source="e5cI-msZ8dwVWMI434KQ-3" target="8H80iAvhQ8a1KgrO3TqX-5">
          <mxGeometry relative="1" as="geometry">
            <Array as="points">
              <mxPoint x="1230" y="985" />
              <mxPoint x="1230" y="390" />
            </Array>
          </mxGeometry>
        </mxCell>
        <mxCell id="8H80iAvhQ8a1KgrO3TqX-15" style="edgeStyle=orthogonalEdgeStyle;rounded=0;orthogonalLoop=1;jettySize=auto;html=1;entryX=1;entryY=0.5;entryDx=0;entryDy=0;" edge="1" parent="WIyWlLk6GJQsqaUBKTNV-1" source="e5cI-msZ8dwVWMI434KQ-3" target="8H80iAvhQ8a1KgrO3TqX-6">
          <mxGeometry relative="1" as="geometry">
            <Array as="points">
              <mxPoint x="1230" y="985" />
              <mxPoint x="1230" y="485" />
            </Array>
          </mxGeometry>
        </mxCell>
        <mxCell id="8H80iAvhQ8a1KgrO3TqX-16" style="edgeStyle=orthogonalEdgeStyle;rounded=0;orthogonalLoop=1;jettySize=auto;html=1;entryX=1;entryY=0.5;entryDx=0;entryDy=0;" edge="1" parent="WIyWlLk6GJQsqaUBKTNV-1" source="e5cI-msZ8dwVWMI434KQ-3" target="8H80iAvhQ8a1KgrO3TqX-7">
          <mxGeometry relative="1" as="geometry">
            <Array as="points">
              <mxPoint x="1230" y="985" />
              <mxPoint x="1230" y="585" />
            </Array>
          </mxGeometry>
        </mxCell>
        <mxCell id="8H80iAvhQ8a1KgrO3TqX-17" style="edgeStyle=orthogonalEdgeStyle;rounded=0;orthogonalLoop=1;jettySize=auto;html=1;entryX=1;entryY=0.5;entryDx=0;entryDy=0;" edge="1" parent="WIyWlLk6GJQsqaUBKTNV-1" source="e5cI-msZ8dwVWMI434KQ-3" target="8H80iAvhQ8a1KgrO3TqX-8">
          <mxGeometry relative="1" as="geometry">
            <Array as="points">
              <mxPoint x="1230" y="985" />
              <mxPoint x="1230" y="690" />
            </Array>
          </mxGeometry>
        </mxCell>
        <mxCell id="e5cI-msZ8dwVWMI434KQ-3" value="Instalar proyecto con&amp;nbsp; jetstream" style="ellipse;whiteSpace=wrap;html=1;" parent="WIyWlLk6GJQsqaUBKTNV-1" vertex="1">
          <mxGeometry x="640" y="950" width="140" height="70" as="geometry" />
        </mxCell>
        <mxCell id="e5cI-msZ8dwVWMI434KQ-5" value="Extends" style="endArrow=block;endSize=16;endFill=0;html=1;rounded=0;" parent="WIyWlLk6GJQsqaUBKTNV-1" edge="1">
          <mxGeometry width="160" relative="1" as="geometry">
            <mxPoint x="610" y="550" as="sourcePoint" />
            <mxPoint x="770" y="550" as="targetPoint" />
          </mxGeometry>
        </mxCell>
        <mxCell id="e5cI-msZ8dwVWMI434KQ-7" value="Extends" style="endArrow=block;endSize=16;endFill=0;html=1;rounded=0;" parent="WIyWlLk6GJQsqaUBKTNV-1" edge="1">
          <mxGeometry width="160" relative="1" as="geometry">
            <mxPoint x="610" y="550" as="sourcePoint" />
            <mxPoint x="770" y="550" as="targetPoint" />
          </mxGeometry>
        </mxCell>
        <mxCell id="e5cI-msZ8dwVWMI434KQ-9" value="Extends" style="endArrow=block;endSize=16;endFill=0;html=1;rounded=0;" parent="WIyWlLk6GJQsqaUBKTNV-1" edge="1">
          <mxGeometry width="160" relative="1" as="geometry">
            <mxPoint x="610" y="550" as="sourcePoint" />
            <mxPoint x="770" y="550" as="targetPoint" />
          </mxGeometry>
        </mxCell>
        <mxCell id="8H80iAvhQ8a1KgrO3TqX-9" style="edgeStyle=orthogonalEdgeStyle;rounded=0;orthogonalLoop=1;jettySize=auto;html=1;entryX=0;entryY=0.5;entryDx=0;entryDy=0;" edge="1" parent="WIyWlLk6GJQsqaUBKTNV-1" source="8H80iAvhQ8a1KgrO3TqX-0" target="8H80iAvhQ8a1KgrO3TqX-5">
          <mxGeometry relative="1" as="geometry" />
        </mxCell>
        <mxCell id="8H80iAvhQ8a1KgrO3TqX-11" style="edgeStyle=orthogonalEdgeStyle;rounded=0;orthogonalLoop=1;jettySize=auto;html=1;entryX=0;entryY=0.5;entryDx=0;entryDy=0;" edge="1" parent="WIyWlLk6GJQsqaUBKTNV-1" source="8H80iAvhQ8a1KgrO3TqX-0" target="8H80iAvhQ8a1KgrO3TqX-7">
          <mxGeometry relative="1" as="geometry" />
        </mxCell>
        <mxCell id="8H80iAvhQ8a1KgrO3TqX-37" style="edgeStyle=orthogonalEdgeStyle;rounded=0;orthogonalLoop=1;jettySize=auto;html=1;entryX=0;entryY=0.5;entryDx=0;entryDy=0;" edge="1" parent="WIyWlLk6GJQsqaUBKTNV-1" source="8H80iAvhQ8a1KgrO3TqX-0" target="8H80iAvhQ8a1KgrO3TqX-6">
          <mxGeometry relative="1" as="geometry" />
        </mxCell>
        <mxCell id="8H80iAvhQ8a1KgrO3TqX-0" value="Añadir vistas" style="ellipse;whiteSpace=wrap;html=1;" vertex="1" parent="WIyWlLk6GJQsqaUBKTNV-1">
          <mxGeometry x="840" y="750" width="120" height="80" as="geometry" />
        </mxCell>
        <mxCell id="8H80iAvhQ8a1KgrO3TqX-20" style="edgeStyle=orthogonalEdgeStyle;rounded=0;orthogonalLoop=1;jettySize=auto;html=1;entryX=1;entryY=0.5;entryDx=0;entryDy=0;" edge="1" parent="WIyWlLk6GJQsqaUBKTNV-1" source="8H80iAvhQ8a1KgrO3TqX-1" target="8H80iAvhQ8a1KgrO3TqX-5">
          <mxGeometry relative="1" as="geometry">
            <Array as="points">
              <mxPoint x="1200" y="885" />
              <mxPoint x="1200" y="390" />
            </Array>
          </mxGeometry>
        </mxCell>
        <mxCell id="8H80iAvhQ8a1KgrO3TqX-1" value="Usarlo como api" style="ellipse;whiteSpace=wrap;html=1;" vertex="1" parent="WIyWlLk6GJQsqaUBKTNV-1">
          <mxGeometry x="840" y="845" width="120" height="80" as="geometry" />
        </mxCell>
        <mxCell id="8H80iAvhQ8a1KgrO3TqX-5" value="Personalizar Login" style="ellipse;whiteSpace=wrap;html=1;" vertex="1" parent="WIyWlLk6GJQsqaUBKTNV-1">
          <mxGeometry x="1050" y="350" width="120" height="80" as="geometry" />
        </mxCell>
        <mxCell id="8H80iAvhQ8a1KgrO3TqX-6" value="Personalizar Register" style="ellipse;whiteSpace=wrap;html=1;" vertex="1" parent="WIyWlLk6GJQsqaUBKTNV-1">
          <mxGeometry x="1050" y="445" width="120" height="80" as="geometry" />
        </mxCell>
        <mxCell id="8H80iAvhQ8a1KgrO3TqX-7" value="Utilizar verificación Email" style="ellipse;whiteSpace=wrap;html=1;" vertex="1" parent="WIyWlLk6GJQsqaUBKTNV-1">
          <mxGeometry x="1050" y="545" width="120" height="80" as="geometry" />
        </mxCell>
        <mxCell id="8H80iAvhQ8a1KgrO3TqX-8" value="2FA" style="ellipse;whiteSpace=wrap;html=1;" vertex="1" parent="WIyWlLk6GJQsqaUBKTNV-1">
          <mxGeometry x="1050" y="650" width="120" height="80" as="geometry" />
        </mxCell>
        <mxCell id="8H80iAvhQ8a1KgrO3TqX-13" style="edgeStyle=orthogonalEdgeStyle;rounded=0;orthogonalLoop=1;jettySize=auto;html=1;entryX=0;entryY=0.375;entryDx=0;entryDy=0;entryPerimeter=0;" edge="1" parent="WIyWlLk6GJQsqaUBKTNV-1" source="8H80iAvhQ8a1KgrO3TqX-0" target="8H80iAvhQ8a1KgrO3TqX-8">
          <mxGeometry relative="1" as="geometry" />
        </mxCell>
        <mxCell id="8H80iAvhQ8a1KgrO3TqX-21" value="" style="ellipse;html=1;shape=endState;fillColor=#000000;strokeColor=#ff0000;" vertex="1" parent="WIyWlLk6GJQsqaUBKTNV-1">
          <mxGeometry x="1000" y="580" width="10" height="10" as="geometry" />
        </mxCell>
        <mxCell id="8H80iAvhQ8a1KgrO3TqX-27" value="" style="ellipse;html=1;shape=endState;fillColor=#000000;strokeColor=#ff0000;" vertex="1" parent="WIyWlLk6GJQsqaUBKTNV-1">
          <mxGeometry x="1000" y="675" width="10" height="10" as="geometry" />
        </mxCell>
        <mxCell id="8H80iAvhQ8a1KgrO3TqX-28" value="" style="ellipse;html=1;shape=endState;fillColor=#000000;strokeColor=#ff0000;" vertex="1" parent="WIyWlLk6GJQsqaUBKTNV-1">
          <mxGeometry x="1000" y="385" width="10" height="10" as="geometry" />
        </mxCell>
        <mxCell id="8H80iAvhQ8a1KgrO3TqX-29" value="" style="ellipse;html=1;shape=endState;fillColor=#000000;strokeColor=#ff0000;" vertex="1" parent="WIyWlLk6GJQsqaUBKTNV-1">
          <mxGeometry x="1196" y="385" width="10" height="10" as="geometry" />
        </mxCell>
        <mxCell id="8H80iAvhQ8a1KgrO3TqX-30" value="" style="ellipse;html=1;shape=endState;fillColor=#000000;strokeColor=#ff0000;" vertex="1" parent="WIyWlLk6GJQsqaUBKTNV-1">
          <mxGeometry x="1225" y="385" width="10" height="10" as="geometry" />
        </mxCell>
        <mxCell id="8H80iAvhQ8a1KgrO3TqX-31" value="" style="ellipse;html=1;shape=endState;fillColor=#000000;strokeColor=#ff0000;" vertex="1" parent="WIyWlLk6GJQsqaUBKTNV-1">
          <mxGeometry x="1225" y="480" width="10" height="10" as="geometry" />
        </mxCell>
        <mxCell id="8H80iAvhQ8a1KgrO3TqX-32" value="" style="ellipse;html=1;shape=endState;fillColor=#000000;strokeColor=#ff0000;" vertex="1" parent="WIyWlLk6GJQsqaUBKTNV-1">
          <mxGeometry x="1225" y="580" width="10" height="10" as="geometry" />
        </mxCell>
        <mxCell id="8H80iAvhQ8a1KgrO3TqX-33" value="" style="ellipse;html=1;shape=endState;fillColor=#000000;strokeColor=#ff0000;" vertex="1" parent="WIyWlLk6GJQsqaUBKTNV-1">
          <mxGeometry x="1226" y="685" width="10" height="10" as="geometry" />
        </mxCell>
        <mxCell id="8H80iAvhQ8a1KgrO3TqX-34" value="" style="ellipse;html=1;shape=endState;fillColor=#000000;strokeColor=#ff0000;" vertex="1" parent="WIyWlLk6GJQsqaUBKTNV-1">
          <mxGeometry x="1195" y="685" width="10" height="10" as="geometry" />
        </mxCell>
        <mxCell id="8H80iAvhQ8a1KgrO3TqX-35" value="" style="ellipse;html=1;shape=endState;fillColor=#000000;strokeColor=#ff0000;" vertex="1" parent="WIyWlLk6GJQsqaUBKTNV-1">
          <mxGeometry x="1195" y="580" width="10" height="10" as="geometry" />
        </mxCell>
        <mxCell id="8H80iAvhQ8a1KgrO3TqX-36" value="" style="ellipse;html=1;shape=endState;fillColor=#000000;strokeColor=#ff0000;" vertex="1" parent="WIyWlLk6GJQsqaUBKTNV-1">
          <mxGeometry x="1195" y="480" width="10" height="10" as="geometry" />
        </mxCell>
        <mxCell id="8H80iAvhQ8a1KgrO3TqX-38" value="" style="ellipse;html=1;shape=endState;fillColor=#000000;strokeColor=#ff0000;" vertex="1" parent="WIyWlLk6GJQsqaUBKTNV-1">
          <mxGeometry x="1000" y="480" width="10" height="10" as="geometry" />
        </mxCell>
      </root>
    </mxGraphModel>
  </diagram>
</mxfile>
